<svg xmlns="http://www.w3.org/2000/svg" width="256" height="256"><path d="m128.13 19.98c-4.24 0-8.13 2.5-10.65 6.82l-12.9 22.09 14.25 0 7.63-13.08c0.85-1.5 2.26-1.5 3.13 0l7.65 13.08 14.39 0-12.84-22.07c-2.53-4.34-6.43-6.82-10.65-6.83zm-5.58 33.7-1.08 1.05 0 2.96-35.36 0-1.06 1.01 0 3.8 1.06 1.05 35.36 0 0 3.37-31.69 0-1.05 1.02 0 24.05 1.05 1.04 9.53 0-13.92 17.21 0.39 0.8 13.89 0 1.7-0.8 13.89-17.21 6.2 0 0 16.98 1.08 1.04 10.98 0 1-1.04 0-16.98 5.7 0 13.89 17.21 1.69 0.8 13.88 0 0.41-0.8-13.92-17.21 10.03 0 1.05-1.04 0-24.05-1.05-1.02-31.7 0 0-3.37 35.52 0 1.04-1.05 0-3.8-1.04-1.01-35.51 0 0-2.96-1-1.05-10.98 0zm-19.9 20.18 18.82 0 0 2.78-18.82 0-0.83-0.83 0-1.09 0.83-0.86zm31.89 0 19.25 0 0.83 0.86 0 1.09-0.83 0.83-19.25 0 0-2.78zm-31.89 9.42 18.82 0 0 2.79-18.82 0-0.83-0.84 0-1.14 0.83-0.82zm31.89 0 19.25 0 0.83 0.82 0 1.14-0.83 0.84-19.25 0 0-2.79zm39.61 4.28 0 24.64 63.4 108.63c0.88 1.49 0.18 2.7-1.57 2.7l-215.75 0c-1.69 0-2.38-1.21-1.49-2.7l63.14-108.52 0-24.52L6.11 217.62c-2.54 4.37-2.81 8.97-0.67 12.63 2.11 3.69 6.21 5.78 11.24 5.78l222.67 0c5.04 0 9.11-2.09 11.22-5.78 2.13-3.65 1.86-8.26-0.65-12.63L174.14 87.56Zm-36.51 33.76-1.05 1.05 0 5.19-14.97 0-1.04 1.03 0 27.38-6.63 0 0-29.2-1-1.03-26.57 0-1.02 1.03 0 47.38 1.02 1.03 26.57 0 1-1.03 0-11.73 16.53 0-13.17 16.25 0.39 0.84 14.33 0 1.66-0.84 10.37-12.71 10.3 12.71 1.69 0.84 14.35 0 0.35-0.84-13.16-16.25 12.34 0 1.05-1.05 0-4.32-1.05-1.08-2.46 0 0-27.38-1.03-1.03-16.27 0 0-5.19-1-1.05-11.52 0zm-39.45 10.83 2.79 0 1.04 1.08 0 9.77-1.04 1.08-2.79 0-1.03-1.08 0-9.77 1.03-1.08zm35.68 2.05 2.55 0 0.84 0.85 0 20.54-0.84 0.84-2.55 0-0.83-0.84 0-20.54 0.83-0.85zm17.72 0 2.6 0 0.82 0.85 0 20.54-0.82 0.84-2.6 0-0.79-0.84 0-20.54 0.79-0.85zm-53.41 16.55 2.79 0 1.04 1.03 0 15.69-1.04 1.03-2.79 0-1.03-1.03 0-15.69 1.03-1.03z" fill="#000"/></svg>